# xmcd
#
# Track frame offsets:
#	150
#	15889
#	29158
#	43979
#	57838
#	73930
#	89077
#	104420
#	118502
#	131925
#	145438
#	161934
#	180075
#	196896
#
# Disc length: 2821 seconds
#
# Revision: 1
# Processed by: cddbd v1.5.1PL2 Copyright (c) Steve Scherf et al.
# Submitted via: audiograbber 1.83.01
#
DISCID=d20b030e
DTITLE=Suncane skale 05- Nove zvijezde CD 1 - Suncane skale 2005
DYEAR=2005
DGENRE=Pop
TTITLE0=ANGELS - Nikad neces shvatiti
TTITLE1=NENO - Stope da ti ljubim
TTITLE2=ALEKSANDRA - Jednostavno
TTITLE3=MIJA MILOVIC - Storm Love
TTITLE4=MLADEN TEODOROVIC - Poljubi me sad
TTITLE5=ELENA RISTEVSKA - Ni nebo ni na zemlja
TTITLE6=NO COMMENT - Nemoj da se budis
TTITLE7=TANJA ZAGAR - Lario - Da - Da
TTITLE8=STORM - Paparaco
TTITLE9=MILOS ZIKIC - Sah Mat
TTITLE10=DANIJELA SABO - Nedodirljiva
TTITLE11=IVANA MELAY - Daizy
TTITLE12=JELENA TOPIC - Ostacu svoja
TTITLE13=DADO I VLADANA - Dok se ne vratis
EXTD=
EXTT0=
EXTT1=
EXTT2=
EXTT3=
EXTT4=
EXTT5=
EXTT6=
EXTT7=
EXTT8=
EXTT9=
EXTT10=
EXTT11=
EXTT12=
EXTT13=
PLAYORDER=
